<svg width="20" height="21" viewBox="0 0 20 21" fill="none" xmlns="http://www.w3.org/2000/svg">
<path d="M20 10.75V12.5C20 14.5711 18.3211 16.25 16.25 16.25C14.7458 16.25 13.4485 15.3644 12.851 14.0862C12.0329 15.1052 10.84 15.75 9.5 15.75C6.99237 15.75 5 13.492 5 10.75C5 8.00802 6.99237 5.75 9.5 5.75C10.659 5.75 11.7079 6.23236 12.501 7.02192L12.5 6.5C12.5 6.08579 12.8358 5.75 13.25 5.75C13.6297 5.75 13.9435 6.03215 13.9932 6.39823L14 6.5V12.5C14 13.7426 15.0074 14.75 16.25 14.75C17.4409 14.75 18.4156 13.8248 18.4948 12.654L18.5 12.5V10.75C18.5 6.05558 14.6944 2.25 10 2.25C5.30558 2.25 1.5 6.05558 1.5 10.75C1.5 15.4444 5.30558 19.25 10 19.25C11.033 19.25 12.0395 19.066 12.9852 18.7112C13.373 18.5658 13.8053 18.7622 13.9508 19.15C14.0963 19.5378 13.8998 19.9702 13.512 20.1157C12.3985 20.5334 11.2136 20.75 10 20.75C4.47715 20.75 0 16.2728 0 10.75C0 5.22715 4.47715 0.75 10 0.75C15.4292 0.75 19.8479 5.07667 19.9962 10.4701L20 10.75ZM9.5 7.25C7.86549 7.25 6.5 8.7976 6.5 10.75C6.5 12.7024 7.86549 14.25 9.5 14.25C11.1345 14.25 12.5 12.7024 12.5 10.75C12.5 8.7976 11.1345 7.25 9.5 7.25Z" fill="#212121"/>
</svg>
