<svg width="20" height="20" viewBox="0 0 20 20" fill="none" xmlns="http://www.w3.org/2000/svg">
<path fill-rule="evenodd" clip-rule="evenodd" d="M9.83628 15.8935C8.39024 15.0035 7.04501 13.9562 5.82467 12.77C4.96672 11.9158 4.31356 10.8744 3.91524 9.72568C3.19845 7.49721 4.03571 4.94606 6.37883 4.19106C7.61028 3.79462 8.9552 4.0212 9.99289 4.79992C11.031 4.02215 12.3754 3.79564 13.607 4.19106C15.9501 4.94606 16.7933 7.49721 16.0765 9.72568C15.6782 10.8744 15.0251 11.9158 14.1671 12.77C12.9468 13.9562 11.6016 15.0035 10.1555 15.8935L9.99892 15.9909L9.83628 15.8935Z" stroke="#717171" stroke-width="0.999507" stroke-linecap="round" stroke-linejoin="round"/>
<path d="M12.4864 6.69946C13.1966 6.92633 13.7012 7.56393 13.7642 8.31411" stroke="#717171" stroke-width="0.999507" stroke-linecap="round" stroke-linejoin="round"/>
</svg>
