<svg width="20" height="20" viewBox="0 0 20 20" fill="none" xmlns="http://www.w3.org/2000/svg">
<path d="M9.98509 14.4972C10.0684 14.4972 10.124 14.4433 10.124 14.3496V14.0033C10.9242 13.955 11.4994 13.5206 11.4994 12.8023C11.4994 12.1805 11.1021 11.8683 10.3407 11.6922L10.124 11.644V10.6446C10.3908 10.6815 10.5658 10.8206 10.6742 11.0535C10.7631 11.2181 10.8826 11.3005 11.0548 11.3005C11.266 11.3005 11.4049 11.1784 11.4049 10.991C11.4049 10.9314 11.3938 10.8746 11.3771 10.8178C11.2438 10.3806 10.7853 10.0484 10.124 10.003V9.64812C10.124 9.55443 10.0684 9.50049 9.98509 9.50049C9.90173 9.50049 9.84616 9.55443 9.84616 9.64812V10.003C9.07094 10.0427 8.51523 10.4856 8.51523 11.1699C8.51523 11.7831 8.91257 12.1153 9.64054 12.2828L9.84616 12.331V13.3645C9.49607 13.3332 9.32101 13.1714 9.2321 12.9499C9.1543 12.7853 9.0376 12.6944 8.86534 12.6944C8.63749 12.6944 8.50134 12.8335 8.50134 13.038C8.50134 13.092 8.51246 13.1515 8.53468 13.2169C8.67083 13.6313 9.13207 13.9692 9.84616 14.0033V14.3496C9.84616 14.4433 9.90173 14.4972 9.98509 14.4972ZM9.29323 11.096C9.29323 10.8661 9.48216 10.6759 9.84616 10.6418V11.5787C9.45716 11.4765 9.29323 11.326 9.29323 11.096ZM10.7242 12.8903C10.7242 13.1515 10.5241 13.3332 10.124 13.3645V12.3963C10.5686 12.5099 10.7242 12.6376 10.7242 12.8903Z" fill="#717171"/>
<path d="M4.06696 8.27026H15.9393" stroke="#717171" stroke-width="0.99935" stroke-linecap="round" stroke-linejoin="round"/>
<path d="M12.6932 3.3374V5.52983" stroke="#717171" stroke-width="0.99935" stroke-linecap="round" stroke-linejoin="round"/>
<path d="M7.31311 3.3374V5.52983" stroke="#717171" stroke-width="0.99935" stroke-linecap="round" stroke-linejoin="round"/>
<path fill-rule="evenodd" clip-rule="evenodd" d="M12.8233 4.3894H7.1833C5.22722 4.3894 4.00543 5.47934 4.00543 7.48282V13.5122C4.00543 15.5471 5.22722 16.6623 7.1833 16.6623H12.8171C14.7793 16.6623 15.995 15.5661 15.995 13.5625V7.48282C16.0012 5.47934 14.7855 4.3894 12.8233 4.3894Z" stroke="#717171" stroke-width="0.99935" stroke-linecap="round" stroke-linejoin="round"/>
</svg>
