<svg width="46" height="45" viewBox="0 0 46 45" fill="none" xmlns="http://www.w3.org/2000/svg">
<g clip-path="url(#clip0_176_573)">
<path d="M23 45C35.4264 45 45.5 34.9264 45.5 22.5C45.5 10.0736 35.4264 0 23 0C10.5736 0 0.5 10.0736 0.5 22.5C0.5 34.9264 10.5736 45 23 45Z" fill="white"/>
<path fill-rule="evenodd" clip-rule="evenodd" d="M23 39C32.1127 39 39.5 31.6127 39.5 22.5C39.5 13.3873 32.1127 6 23 6C13.8873 6 6.5 13.3873 6.5 22.5C6.5 31.6127 13.8873 39 23 39ZM23 40C32.665 40 40.5 32.165 40.5 22.5C40.5 12.835 32.665 5 23 5C13.335 5 5.5 12.835 5.5 22.5C5.5 32.165 13.335 40 23 40Z" fill="#222222" fill-opacity="0.1"/>
<mask id="mask0_176_573" style="mask-type:luminance" maskUnits="userSpaceOnUse" x="15" y="14" width="16" height="15">
<path d="M30.5 14H15.5V28.9942H30.5V14Z" fill="white"/>
</mask>
<g mask="url(#mask0_176_573)">
<path d="M22.9741 28.9822C21.2453 28.9822 19.5165 28.9822 17.8079 28.9822C16.2002 28.9822 15.5 28.2561 15.5 26.657C15.5 23.9812 15.5 21.3045 15.5 18.6268C15.5 17.1285 16.2434 16.3535 17.7388 16.3881C18.452 16.4319 19.1556 16.2056 19.7096 15.7542C20.0582 15.466 20.4702 15.2701 20.8333 15.0022C21.1963 14.7342 21.7466 14.6478 22.0405 14.8783C22.4151 15.152 22.1731 15.7282 22.1644 16.1662C22.1644 16.2267 22.0434 16.3304 21.9714 16.3391C21.4095 16.3938 21.0292 16.777 20.6201 17.0853C19.796 17.7106 18.9259 18.1024 17.8569 17.9497C17.2806 17.8662 17.0645 18.1485 17.0703 18.7421C17.0934 21.3698 17.0934 23.9985 17.0703 26.6282C17.0703 27.2332 17.2979 27.4263 17.8655 27.4234C21.3077 27.4234 24.7518 27.4234 28.1978 27.4234C28.7078 27.4234 28.9182 27.2275 28.9124 26.6973C28.8922 24.787 28.9441 22.8738 28.8865 20.9635C28.8663 20.2173 29.2783 20.3268 29.7336 20.3095C30.1888 20.2922 30.5173 20.3095 30.5029 20.9607C30.451 22.9171 30.5029 24.8792 30.4798 26.8385C30.4798 28.2014 29.722 28.9707 28.3563 28.9851C26.5613 29.0023 24.7662 28.9822 22.9741 28.9822Z" fill="black"/>
<path d="M30.0964 16.8327C30.1136 17.0056 30.033 17.1381 29.7506 17.1871C28.6327 17.3772 28.0218 18.0976 27.7654 19.1665C27.7049 19.4287 27.604 19.5296 27.3418 19.5209C27.0796 19.5123 26.9442 19.4345 26.8924 19.1694C26.8234 18.657 26.5842 18.1827 26.2132 17.8227C25.8422 17.4626 25.3609 17.2377 24.8466 17.1842C24.5729 17.1381 24.5729 16.9825 24.5585 16.7837C24.5441 16.5849 24.5585 16.4034 24.815 16.3515C25.9963 16.1152 26.7512 15.4698 26.9096 14.2338C26.9442 13.9687 27.1747 14.009 27.362 14.0004C27.5493 13.9917 27.7106 14.0177 27.7596 14.2885C27.9642 15.441 28.624 16.1642 29.8255 16.3313C30.0906 16.363 30.082 16.5618 30.0964 16.8327Z" fill="black"/>
<path d="M23.0141 19.1455C22.1849 19.1453 21.3886 19.4701 20.7961 20.0503C20.2036 20.6304 19.8621 21.4196 19.8447 22.2487C19.85 23.0778 20.1744 23.873 20.7507 24.4691C21.327 25.0652 22.1108 25.4164 22.9392 25.4498C23.3532 25.4547 23.764 25.378 24.1483 25.2242C24.5327 25.0703 24.8829 24.8422 25.1791 24.553C25.4753 24.2638 25.7116 23.9191 25.8745 23.5385C26.0375 23.158 26.1239 22.749 26.1288 22.3351C26.1337 21.9212 26.0571 21.5103 25.9032 21.126C25.7493 20.7417 25.5213 20.3914 25.2321 20.0952C24.9428 19.7991 24.5981 19.5627 24.2176 19.3998C23.837 19.2368 23.4281 19.1504 23.0141 19.1455ZM23.0401 23.8391C22.8311 23.8449 22.623 23.8089 22.4281 23.7333C22.2332 23.6578 22.0552 23.5441 21.9047 23.399C21.7542 23.2538 21.6342 23.0801 21.5516 22.8881C21.469 22.696 21.4255 22.4894 21.4237 22.2804C21.4259 21.8724 21.5886 21.4818 21.8765 21.1928C22.1644 20.9039 22.5544 20.7398 22.9623 20.736C23.3723 20.7332 23.7675 20.8886 24.0659 21.1698C24.3643 21.451 24.5428 21.8363 24.5643 22.2458C24.5625 22.656 24.4035 23.05 24.1199 23.3464C23.8363 23.6429 23.4498 23.8192 23.0401 23.8391Z" fill="black"/>
</g>
</g>
<defs>
<clipPath id="clip0_176_573">
<rect width="45" height="45" fill="white" transform="translate(0.5)"/>
</clipPath>
</defs>
</svg>
