<svg width="24" height="24" viewBox="0 0 24 24" fill="none" xmlns="http://www.w3.org/2000/svg">
<path d="M4.88574 19.1153C5.00292 19.2325 5.14289 19.3106 5.30565 19.3497C5.46841 19.3952 5.6279 19.3952 5.78415 19.3497C5.94691 19.3106 6.09013 19.2325 6.21383 19.1153L11.9949 13.3243L17.7956 19.1153C17.9714 19.2911 18.1894 19.379 18.4498 19.379C18.7102 19.3855 18.9316 19.2976 19.1139 19.1153C19.2962 18.933 19.3873 18.7116 19.3873 18.4512C19.3873 18.1843 19.2994 17.9629 19.1236 17.7872L13.323 11.9962L19.1236 6.21501C19.2994 6.03923 19.3873 5.81789 19.3873 5.55096C19.3873 5.28403 19.2962 5.06268 19.1139 4.8869C18.9316 4.71113 18.7102 4.62323 18.4498 4.62323C18.1894 4.62323 17.9714 4.71113 17.7956 4.8869L11.9949 10.6779L6.21383 4.8869C6.09013 4.76972 5.94691 4.6916 5.78415 4.65253C5.6279 4.60696 5.46841 4.6037 5.30565 4.64277C5.14289 4.68183 5.00292 4.76321 4.88574 4.8869C4.76855 5.0106 4.69043 5.15383 4.65137 5.31659C4.61231 5.47284 4.61231 5.63234 4.65137 5.7951C4.69043 5.95785 4.76855 6.09783 4.88574 6.21501L10.6668 11.9962L4.88574 17.7872C4.76855 17.9043 4.68717 18.0443 4.6416 18.2071C4.60254 18.3698 4.60254 18.5326 4.6416 18.6954C4.68066 18.8581 4.76204 18.9981 4.88574 19.1153Z" fill="black"/>
</svg>
