<svg width="20" height="20" viewBox="0 0 20 20" fill="none" xmlns="http://www.w3.org/2000/svg">
<path d="M9.98118 13.6899C10.0838 13.6899 10.1522 13.6102 10.1522 13.4718V12.9603C11.1371 12.889 11.8449 12.2475 11.8449 11.1866C11.8449 10.2683 11.3559 9.80708 10.4189 9.54712L10.1522 9.47583V7.99986C10.4805 8.05438 10.6959 8.25984 10.8293 8.60367C10.9387 8.84687 11.0858 8.96846 11.2978 8.96846C11.5577 8.96846 11.7287 8.78816 11.7287 8.51142C11.7287 8.42337 11.715 8.33951 11.6945 8.25565C11.5303 7.60991 10.9661 7.11932 10.1522 7.05223V6.5281C10.1522 6.38972 10.0838 6.31006 9.98118 6.31006C9.87859 6.31006 9.81019 6.38972 9.81019 6.5281V7.05223C8.85607 7.11094 8.17213 7.76505 8.17213 8.77559C8.17213 9.68129 8.66115 10.1719 9.55712 10.4193L9.81019 10.4906V12.0168C9.3793 11.9707 9.16385 11.7317 9.05442 11.4047C8.95867 11.1615 8.81504 11.0273 8.60302 11.0273C8.3226 11.0273 8.15503 11.2327 8.15503 11.5346C8.15503 11.6143 8.16871 11.7024 8.19606 11.7988C8.36363 12.411 8.93131 12.91 9.81019 12.9603V13.4718C9.81019 13.6102 9.87859 13.6899 9.98118 13.6899ZM9.12966 8.66657C9.12966 8.32693 9.36219 8.04599 9.81019 7.99567V9.37939C9.33142 9.22844 9.12966 9.00621 9.12966 8.66657ZM10.8908 11.3166C10.8908 11.7024 10.6446 11.9707 10.1522 12.0168V10.587C10.6993 10.7547 10.8908 10.9434 10.8908 11.3166Z" fill="#717171"/>
<path d="M10 16.765C13.7361 16.765 16.7648 13.7363 16.7648 10.0002C16.7648 6.26407 13.7361 3.23535 10 3.23535C6.26389 3.23535 3.23517 6.26407 3.23517 10.0002C3.23517 13.7363 6.26389 16.765 10 16.765Z" stroke="#717171" stroke-width="1.22997"/>
</svg>
