<svg width="24" height="24" viewBox="0 0 24 24" fill="none" xmlns="http://www.w3.org/2000/svg">
<g clip-path="url(#clip0_25_523)">
<g clip-path="url(#clip1_25_523)">
<path d="M23.1928 12.2527C23.1928 11.4397 23.1291 10.6223 22.9931 9.82251H12.0819V14.4278H18.3302C18.0709 15.9132 17.2378 17.2272 16.018 18.062V21.0503H19.7456C21.9346 18.9673 23.1928 15.8912 23.1928 12.2527Z" fill="#4285F4"/>
<path d="M12.085 23.9377C15.2049 23.9377 17.836 22.8787 19.753 21.0506L16.0252 18.0625C14.9881 18.7919 13.6492 19.205 12.0893 19.205C9.0714 19.205 6.51259 17.1001 5.59448 14.27H1.74777V17.3505C3.71151 21.389 7.71123 23.9377 12.085 23.9377Z" fill="#34A853"/>
<path d="M5.58804 14.2728C5.10348 12.7874 5.10348 11.1791 5.58804 9.69378V6.61328H1.74555C0.104837 9.99259 0.104837 13.974 1.74555 17.3532L5.58804 14.2728Z" fill="#FBBC04"/>
<path d="M12.0849 4.75143C13.7342 4.72506 15.3281 5.36664 16.5225 6.54435L19.8251 3.12988C17.734 1.09965 14.9583 -0.0165272 12.0849 0.0186282C7.71118 0.0186282 3.71145 2.5674 1.74771 6.61026L5.59017 9.69076C6.50404 6.85636 9.0671 4.75143 12.0849 4.75143Z" fill="#EA4335"/>
</g>
</g>
<defs>
<clipPath id="clip0_25_523">
<rect width="24" height="24" fill="white"/>
</clipPath>
<clipPath id="clip1_25_523">
<rect width="24" height="24" fill="white"/>
</clipPath>
</defs>
</svg>
