<svg width="28" height="40" viewBox="0 0 28 40" fill="none" xmlns="http://www.w3.org/2000/svg">
<g clip-path="url(#clip0_49_424)">
<rect width="28" height="40" fill="white"/>
<path d="M8.34399 9.30466L8.37145 9.28852L8.43494 9.26917C8.40939 9.29071 8.37742 9.30322 8.34399 9.30466Z" fill="#0D0C22"/>
<path d="M8.33226 9.30033C8.33617 9.29983 8.33999 9.29892 8.34371 9.29761C8.34393 9.30014 8.34393 9.3027 8.34371 9.30524C8.33952 9.30468 8.33554 9.30299 8.33226 9.30033Z" fill="#0D0C22"/>
<path d="M8.34387 9.30505H8.33977V9.30249L8.34387 9.30505Z" fill="#0D0C22"/>
<path d="M7.96863 12.1572L7.92234 12.1309L7.90511 12.1212L7.8895 12.1045C7.91887 12.1171 7.94564 12.135 7.96863 12.1572Z" fill="#0D0C22"/>
<path d="M8.26397 9.36711L8.30919 9.32404L8.33984 9.30737C8.32336 9.33646 8.29612 9.35791 8.26397 9.36711Z" fill="#0D0C22"/>
<path d="M19.637 37.0972C19.6731 37.1128 19.7047 37.1372 19.729 37.1682L19.7005 37.15C19.6811 37.1322 19.6537 37.1112 19.637 37.0972Z" fill="#0D0C22"/>
<path d="M13.0328 35.7977C13.0328 35.757 13.0526 35.7645 13.0478 35.9096C13.0478 35.8981 13.043 35.8862 13.0408 35.8749C13.0381 35.849 13.036 35.8236 13.0328 35.7977Z" fill="#0D0C22"/>
<path d="M13.7178 37.0972C13.7539 37.1128 13.7855 37.1372 13.8098 37.1682L13.7813 37.15C13.7619 37.1322 13.7345 37.1112 13.7178 37.0972Z" fill="#0D0C22"/>
<path d="M24.2879 37.4061C24.3153 37.3823 24.3489 37.3667 24.3848 37.3607C24.3557 37.3748 24.3267 37.3889 24.3073 37.3995L24.2879 37.4061Z" fill="#0D0C22"/>
<path d="M25.3345 36.4037C25.3387 36.3615 25.3518 36.3205 25.3727 36.2833C25.3579 36.3218 25.3455 36.3615 25.3356 36.4015L25.3345 36.4037Z" fill="#0D0C22"/>
<path d="M14.9578 18.4781C13.521 19.0931 11.8905 19.7905 9.77725 19.7905C8.89325 19.7888 8.0135 19.6675 7.16199 19.43L8.62354 34.4357C8.67526 35.0627 8.96099 35.6475 9.42394 36.0738C9.8869 36.5001 10.4932 36.7365 11.1226 36.7365C11.1226 36.7365 13.1949 36.8441 13.8864 36.8441C14.6306 36.8441 16.8622 36.7365 16.8622 36.7365C17.4914 36.7365 18.0976 36.4998 18.5605 36.0735C19.0233 35.6472 19.3089 35.0627 19.3607 34.4357L20.9261 17.8538C20.2265 17.6149 19.5205 17.4562 18.7246 17.4562C17.3481 17.4556 16.239 17.9297 14.9578 18.4781Z" fill="#FFDD00"/>
<path d="M2.6377 12.076L2.66245 12.0992L2.67859 12.1089C2.66616 12.0965 2.65245 12.0855 2.6377 12.076Z" fill="#0D0C22"/>
<path d="M27.6847 10.6911L27.4646 9.58099C27.2671 8.58493 26.8189 7.64375 25.7965 7.28375C25.4687 7.16857 25.0969 7.11909 24.8456 6.88069C24.5943 6.64231 24.52 6.27209 24.4619 5.92876C24.3543 5.29861 24.2531 4.66793 24.1428 4.03887C24.0476 3.49805 23.9722 2.89052 23.7242 2.39437C23.4013 1.72818 22.7313 1.33857 22.0651 1.08081C21.7237 0.953382 21.3754 0.845583 21.0217 0.757942C19.3573 0.318834 17.6073 0.157397 15.895 0.0653783C13.8398 -0.0480303 11.779 -0.0138619 9.72866 0.167621C8.20256 0.306456 6.59518 0.474352 5.14495 1.00225C4.61491 1.19543 4.0687 1.42736 3.66567 1.83688C3.17112 2.34002 3.00969 3.11814 3.37075 3.74558C3.62745 4.19115 4.06226 4.50596 4.52344 4.71421C5.12412 4.98255 5.75146 5.18674 6.39502 5.32338C8.18695 5.71944 10.0429 5.87493 11.8736 5.94114C13.9027 6.02302 15.935 5.95665 17.9544 5.74255C18.4538 5.68766 18.9523 5.62183 19.4498 5.54508C20.0359 5.4552 20.412 4.68891 20.2393 4.15509C20.0326 3.5169 19.4773 3.26937 18.8493 3.36569C18.7567 3.3802 18.6647 3.39365 18.5722 3.4071L18.5055 3.41679C18.2927 3.44372 18.08 3.4688 17.8672 3.49213C17.4278 3.53948 16.9872 3.57823 16.5456 3.60838C15.5565 3.67725 14.5648 3.70899 13.5736 3.71062C12.5996 3.71062 11.625 3.68316 10.6532 3.61914C10.2098 3.59009 9.76741 3.55312 9.32616 3.50827C9.12544 3.48729 8.92525 3.46524 8.72509 3.44047L8.53457 3.41626L8.49316 3.41035L8.29566 3.38183C7.89207 3.321 7.48847 3.25107 7.08919 3.16657C7.04891 3.15762 7.01285 3.13523 6.98702 3.10303C6.96118 3.07084 6.94711 3.0308 6.94711 2.98953C6.94711 2.94826 6.96118 2.90822 6.98702 2.87603C7.01285 2.84384 7.04891 2.82143 7.08919 2.81249H7.09673C7.44275 2.73877 7.79143 2.67581 8.1412 2.62092C8.25782 2.60262 8.37476 2.58468 8.49207 2.56711H8.49529C8.7143 2.55258 8.93441 2.51329 9.15233 2.48746C11.0485 2.29023 12.9559 2.22299 14.8613 2.28621C15.7863 2.31311 16.7108 2.36746 17.6315 2.46109C17.8295 2.48154 18.0265 2.50307 18.2235 2.52728C18.2988 2.53643 18.3747 2.54719 18.4506 2.55634L18.6034 2.57841C19.0489 2.64478 19.4922 2.72531 19.9331 2.82003C20.5864 2.96209 21.4253 3.00837 21.7159 3.72407C21.8084 3.95115 21.8504 4.20353 21.9015 4.44191L21.9667 4.74596C21.9683 4.7514 21.9696 4.757 21.9704 4.76263C22.1243 5.48013 22.2784 6.19762 22.4326 6.91512C22.444 6.96813 22.4442 7.02289 22.4334 7.076C22.4226 7.12913 22.401 7.17942 22.3699 7.22383C22.3388 7.26821 22.2989 7.30571 22.2527 7.33398C22.2064 7.36225 22.1549 7.38067 22.1012 7.38815H22.0969L22.0027 7.40106L21.9096 7.41342C21.6147 7.45182 21.3195 7.48769 21.0239 7.52106C20.4416 7.58743 19.8584 7.64482 19.2744 7.69326C18.1139 7.78974 16.951 7.85307 15.7858 7.88322C15.1921 7.89898 14.5985 7.90636 14.0051 7.90527C11.6433 7.90342 9.28353 7.76613 6.93745 7.49414C6.68344 7.46402 6.42946 7.43171 6.17544 7.39891C6.37241 7.42421 6.0323 7.37952 5.96344 7.36985C5.802 7.34724 5.64056 7.32375 5.47912 7.29936C4.93723 7.21808 4.39859 7.118 3.85776 7.03027C3.20395 6.92266 2.57865 6.97648 1.98725 7.29936C1.50181 7.565 1.10891 7.97235 0.860967 8.46708C0.605896 8.99443 0.530021 9.5686 0.41594 10.1353C0.301858 10.7019 0.124278 11.3116 0.191543 11.8933C0.336297 13.1487 1.21397 14.169 2.47641 14.3972C3.66405 14.6124 4.85813 14.7868 6.05544 14.9353C10.7588 15.5113 15.5104 15.5802 20.2285 15.1409C20.6127 15.105 20.9964 15.0659 21.3795 15.0236C21.4992 15.0104 21.6203 15.0242 21.734 15.0639C21.8476 15.1036 21.951 15.1683 22.0364 15.2531C22.1218 15.3379 22.1872 15.4408 22.2277 15.5541C22.2683 15.6675 22.283 15.7885 22.2707 15.9082L22.1512 17.0695C21.9105 19.416 21.6698 21.7624 21.429 24.1086C21.1779 26.5725 20.9252 29.0362 20.6708 31.4996C20.5991 32.1936 20.5273 32.8873 20.4556 33.5806C20.3867 34.2636 20.377 34.9679 20.2473 35.6428C20.0428 36.704 19.3245 37.3557 18.2762 37.5941C17.3158 37.8127 16.3348 37.9274 15.3499 37.9362C14.258 37.9421 13.1667 37.8937 12.0749 37.8996C10.9093 37.9062 9.48168 37.7986 8.58195 36.931C7.79143 36.1692 7.68218 34.9761 7.57457 33.9443C7.43108 32.5786 7.28885 31.2131 7.14783 29.8477L6.3568 22.2554L5.84506 17.3429C5.83643 17.2616 5.82783 17.1814 5.81976 17.0996C5.7584 16.5136 5.34351 15.94 4.68969 15.9696C4.13006 15.9943 3.49401 16.47 3.55965 17.0996L3.93901 20.7416L4.72359 28.2753C4.94711 30.4153 5.17006 32.5554 5.39249 34.6962C5.43555 35.1062 5.4759 35.5174 5.52109 35.9274C5.76703 38.1683 7.47824 39.3758 9.59737 39.7157C10.8351 39.9149 12.1029 39.9559 13.3588 39.9762C14.9689 40.0022 16.5951 40.0641 18.1788 39.7723C20.5256 39.3417 22.2863 37.7748 22.5376 35.3442C22.6093 34.6424 22.6811 33.9406 22.7528 33.2385C22.9914 30.9166 23.2296 28.5946 23.4675 26.2724L24.2456 18.6849L24.6024 15.2076C24.6201 15.0352 24.6929 14.873 24.81 14.7452C24.9271 14.6174 25.0822 14.5306 25.2524 14.4978C25.9234 14.367 26.5649 14.1437 27.0422 13.633C27.802 12.82 27.9532 11.7598 27.6847 10.6911ZM2.44197 11.4413C2.45219 11.4364 2.43336 11.5241 2.42529 11.565C2.42367 11.5031 2.4269 11.4483 2.44197 11.4413ZM2.50708 11.945C2.51246 11.9412 2.5286 11.9627 2.54529 11.9886C2.51999 11.9648 2.50385 11.9471 2.50654 11.945H2.50708ZM2.57112 12.0294C2.59426 12.0687 2.60663 12.0935 2.57112 12.0294V12.0294ZM2.69973 12.1338H2.70296C2.70296 12.1376 2.70888 12.1414 2.71103 12.1451C2.70746 12.141 2.7035 12.1372 2.69919 12.1338H2.69973ZM25.2212 11.9778C24.9801 12.207 24.6169 12.3136 24.2579 12.3668C20.2328 12.9642 16.149 13.2666 12.0797 13.1331C9.16741 13.0336 6.28578 12.7101 3.40253 12.3028C3.12 12.263 2.81381 12.2113 2.61955 12.0031C2.25362 11.6102 2.43336 10.8192 2.5286 10.3446C2.61578 9.90977 2.7826 9.33023 3.29974 9.26834C4.10692 9.17364 5.04431 9.51425 5.8429 9.63534C6.80434 9.78205 7.76938 9.89955 8.73798 9.9878C12.8718 10.3645 17.0751 10.3058 21.1907 9.75481C21.9408 9.65398 22.6883 9.53686 23.433 9.40341C24.0965 9.28447 24.8321 9.06117 25.2331 9.74833C25.508 10.2165 25.5446 10.8429 25.5021 11.3719C25.489 11.6023 25.3883 11.8191 25.2207 11.9778H25.2212Z" fill="#0D0C22"/>
</g>
<defs>
<clipPath id="clip0_49_424">
<rect width="28" height="40" fill="white"/>
</clipPath>
</defs>
</svg>

