<svg width="43" height="42" viewBox="0 0 43 42" fill="none" xmlns="http://www.w3.org/2000/svg">
<path fill-rule="evenodd" clip-rule="evenodd" d="M26.7016 39.3802C30.7986 38.7766 34.8144 37.0323 37.4051 33.6882C40.0348 30.2934 40.8447 25.7988 40.2469 21.6065C39.7104 17.8513 38.1335 14.7172 35.9116 12.0991C28.6605 8.57652 20.513 5.69856 12.6797 8.66207C4.29386 11.8344 0.182297 21.752 4.04636 29.8707C7.98822 38.1524 18.2475 40.6256 26.7016 39.3802ZM7.14279 9.74853C14.7995 3.55597 24.4005 5.41277 32.8304 9.09609C29.1361 6.07336 24.5288 3.94763 20.0079 2.46805C19.4023 2.27001 19.6392 1.21547 20.2779 1.3588C26.5395 2.76559 32.8075 6.0975 36.9804 11.0851C38.1713 11.7033 39.3267 12.3382 40.4311 12.9703C41.0527 13.3262 40.463 14.4168 39.8192 14.0813C39.4705 13.9 39.1181 13.7174 38.764 13.5348C39.8004 15.1767 40.6242 16.961 41.1726 18.8842C43.7963 28.093 39.6105 37.5818 30.2242 40.4516C21.6065 43.0867 9.80275 41.3054 4.17153 33.7355C-1.36676 26.29 -0.112647 15.6171 7.14279 9.74853Z" fill="#FFDD00"/>
<path d="M15.6419 29.5983C16.5629 29.5061 17.5991 29.3756 18.7504 29.2066C19.9016 29.0376 21.0759 28.861 22.2733 28.6767C23.4706 28.4924 24.6602 28.3081 25.8422 28.1238C27.0242 27.9395 28.1063 27.7705 29.0887 27.6169C29.2115 27.6169 29.3727 27.5171 29.5723 27.3174C29.7718 27.1177 29.9483 26.8951 30.1018 26.6494C30.2554 26.4036 30.3551 26.1655 30.4011 25.9351C30.4472 25.7047 30.3781 25.5435 30.1939 25.4514C30.0405 25.3899 29.7411 25.3131 29.296 25.221C28.8508 25.1288 28.4593 25.0981 28.1217 25.1288C27.4463 25.1903 26.6864 25.2747 25.8422 25.3823C24.9979 25.4898 24.1383 25.605 23.2634 25.7278C22.3883 25.8506 21.5441 25.9658 20.7305 26.0734C19.917 26.1809 19.2339 26.2654 18.6813 26.3268C19.1111 25.7738 19.5869 25.1519 20.1089 24.4607C20.6308 23.7696 21.1374 23.0476 21.6286 22.2951C22.1197 21.5426 22.5649 20.7976 22.964 20.0604C23.3631 19.3231 23.6855 18.6474 23.9311 18.033C24.3609 16.8965 24.3762 15.6831 23.9772 14.393C23.7929 14.0243 23.509 13.6864 23.1252 13.3793C22.7414 13.0721 22.2579 12.8417 21.6745 12.6881C20.7842 12.5652 19.9016 12.5652 19.0267 12.6881C18.1517 12.811 17.3228 13.003 16.5399 13.2641C15.7571 13.5252 15.0663 13.84 14.4676 14.2087C13.869 14.5773 13.4315 14.9305 13.1552 15.2684C13.0938 15.422 13.0324 15.6217 12.971 15.8674C12.9096 16.1132 12.8943 16.3128 12.925 16.4664C12.925 16.5278 12.971 16.62 13.0631 16.7429C13.1552 16.8657 13.2857 16.9809 13.4545 17.0885C13.6234 17.196 13.8306 17.2651 14.0763 17.2958C14.3219 17.3265 14.6288 17.2497 14.9973 17.0654C15.2736 16.9425 15.5959 16.7966 15.9643 16.6277C16.3327 16.4587 16.7394 16.2974 17.1846 16.1439C17.6298 15.9903 18.0827 15.8521 18.5432 15.7292C19.0037 15.6063 19.4488 15.5295 19.8786 15.4988C20.1856 15.4681 20.4543 15.4604 20.6845 15.4758C20.9148 15.4911 21.1066 15.5602 21.2601 15.6831C21.3522 15.7446 21.4136 15.8905 21.4443 16.1209C21.475 16.3512 21.4443 16.5893 21.3522 16.835C20.6461 18.5552 19.6714 20.283 18.428 22.0186C17.1846 23.7542 15.9183 25.3439 14.6288 26.7876C14.2911 27.1254 14.107 27.3712 14.0763 27.5248C14.0455 27.6784 14.0302 27.7859 14.0302 27.8473C14.0916 28.2774 14.2681 28.692 14.5598 29.0914C14.8514 29.4908 15.2121 29.6597 15.6419 29.5983Z" fill="#222222"/>
</svg>
