<svg width="43" height="42" viewBox="0 0 43 42" fill="none" xmlns="http://www.w3.org/2000/svg">
<path fill-rule="evenodd" clip-rule="evenodd" d="M26.7018 39.2527C30.7989 38.6492 34.8146 36.9055 37.4053 33.5624C40.035 30.1687 40.845 25.6757 40.2471 21.4845C39.7107 17.7306 38.1337 14.5974 35.9119 11.9802C28.6608 8.45875 20.5132 5.5817 12.68 8.54425C4.2941 11.7157 0.182541 21.6301 4.04661 29.7462C7.98847 38.0252 18.2477 40.4977 26.7018 39.2527ZM7.14304 9.63047C14.7998 3.43979 24.4008 5.296 32.8306 8.97815C29.1364 5.95638 24.529 3.83131 20.0082 2.35221C19.4025 2.15424 19.6394 1.10003 20.2781 1.24332C26.5398 2.64967 32.8077 5.98051 36.9806 10.9666C38.1715 11.5845 39.3269 12.2193 40.4314 12.8512C41.0529 13.2069 40.4632 14.2971 39.8194 13.9618C39.4708 13.7805 39.1183 13.598 38.7643 13.4154C39.8006 15.0568 40.6245 16.8406 41.1728 18.7631C43.7965 27.969 39.6107 37.4548 30.2244 40.3237C21.6068 42.9579 9.803 41.1773 4.17177 33.6098C-1.36651 26.1666 -0.112403 15.4972 7.14304 9.63047Z" fill="#FFDD00"/>
<path d="M21.208 22.6763C23.0273 22.9162 24.4766 23.366 25.5562 24.0257C26.6357 24.6855 27.1755 25.5651 27.1755 26.6647C27.1755 27.7443 26.5358 28.8139 25.2563 29.8734C23.9968 30.933 22.4575 31.7627 20.6383 32.3625C18.839 32.9622 17.0098 33.2621 15.1506 33.2621C13.3114 33.2621 12.3918 32.9223 12.3918 32.2425C12.3918 32.0626 12.9815 31.8327 14.161 31.5528C15.3605 31.2529 16.67 30.943 18.0894 30.6232C19.5088 30.2833 20.8082 29.7535 21.9877 29.0338C23.1872 28.2941 23.7869 27.4444 23.7869 26.4848C23.7869 25.965 23.4271 25.5451 22.7074 25.2253C21.9877 24.8854 21.188 24.6455 20.3084 24.5055C17.9894 24.1657 16.8299 23.7658 16.8299 23.306C16.8299 23.1461 16.8599 23.0261 16.9199 22.9462C17.0798 22.6663 17.5896 22.2764 18.4492 21.7766C19.3088 21.2768 20.1785 20.787 21.0581 20.3072C21.9577 19.8274 22.7774 19.1976 23.5171 18.4179C24.2567 17.6382 24.6266 16.8486 24.6266 16.0489C24.6266 15.1092 24.1168 14.6394 23.0972 14.6394C22.2776 14.6394 21.238 14.9693 19.9786 15.629C18.7191 16.2688 17.9994 16.5887 17.8195 16.5887C17.6595 16.5887 17.3497 16.3787 16.8899 15.9589C16.4301 15.5191 16.2002 15.1892 16.2002 14.9693C16.2002 14.3695 17.0098 13.7498 18.6291 13.11C20.2684 12.4703 21.7178 12.1504 22.9773 12.1504C24.2367 12.1504 25.2963 12.5802 26.1559 13.4399C27.0356 14.2995 27.4754 15.2892 27.4754 16.4087C27.4754 17.5083 26.8456 18.6378 25.5862 19.7974C24.3267 20.9369 22.8673 21.8966 21.208 22.6763Z" fill="#222222"/>
</svg>
