<svg width="43" height="42" viewBox="0 0 43 42" fill="none" xmlns="http://www.w3.org/2000/svg">
<g clip-path="url(#clip0_11_2165)">
<path fill-rule="evenodd" clip-rule="evenodd" d="M14.4944 38.609C10.4838 37.5803 6.67302 35.426 4.44642 31.8297C2.18623 28.1792 1.85035 23.6254 2.88266 19.5191C3.80824 15.8413 5.70364 12.8898 8.18619 10.5188C15.7639 7.77438 24.1656 5.76465 31.6448 9.53055C39.6515 13.5619 42.7038 23.8534 38.0137 31.5222C33.2293 39.345 22.7703 40.7315 14.4944 38.609ZM37.0282 11.1897C30.0618 4.23142 20.3216 5.07376 11.5552 7.85478C15.5441 5.23542 20.3472 3.60348 24.9968 2.605C25.6197 2.47142 25.4942 1.39807 24.8442 1.47379C18.4713 2.21787 11.891 4.87551 7.22097 9.39867C5.97226 9.88876 4.75713 10.3993 3.59302 10.9123C2.93784 11.2012 3.4102 12.3473 4.08536 12.081C4.45101 11.9372 4.82048 11.7925 5.19165 11.6479C3.9897 13.1722 2.98418 14.8603 2.23802 16.7151C-1.33253 25.5977 1.83837 35.4706 10.8715 39.3058C19.1647 42.8271 31.0873 42.2902 37.4771 35.3519C43.7615 28.5277 43.6293 17.7839 37.0282 11.1897Z" fill="#FFDD00"/>
<path d="M22.4054 31.83C22.6817 31.7685 22.8199 31.5842 22.8199 31.2771C22.6356 28.298 22.5665 25.3113 22.6126 22.3168C22.6587 19.3223 22.9887 16.3201 23.6027 13.3103C23.6027 13.126 23.549 12.9264 23.4415 12.7114C23.3341 12.4964 23.1882 12.2968 23.0041 12.1125C22.8199 11.9282 22.6049 11.7747 22.3594 11.6518C22.1137 11.529 21.8835 11.4675 21.6686 11.4675C21.4843 11.4675 21.3002 11.7286 21.116 12.2507C20.9318 12.7728 20.7629 13.3564 20.6094 14.0013C19.7806 18.7311 19.581 23.5683 20.0108 28.513C20.0108 28.728 20.1336 29.1656 20.3792 29.8259C20.6248 30.4863 21.0238 31.0468 21.5765 31.5074C21.6993 31.5996 21.8297 31.6841 21.9679 31.7609C22.106 31.8377 22.2519 31.8607 22.4054 31.83Z" fill="#222222"/>
</g>
<defs>
<clipPath id="clip0_11_2165">
<rect width="42" height="41" fill="white" transform="translate(0.445007 0.73999)"/>
</clipPath>
</defs>
</svg>
