<svg width="44" height="42" viewBox="0 0 44 42" fill="none" xmlns="http://www.w3.org/2000/svg">
<path fill-rule="evenodd" clip-rule="evenodd" d="M23.6983 33.6948C23.4374 33.9098 23.1535 34.0019 22.8466 33.9712C22.4169 33.9405 22.064 33.6948 21.7878 33.2342C21.5116 32.7735 21.3427 32.2821 21.2813 31.7601C21.1278 30.8081 21.0204 29.8714 20.959 28.9501C20.8977 28.0288 20.8516 27.0922 20.8209 26.1401C19.9309 26.3858 19.0255 26.6238 18.1047 26.8542C17.184 27.0845 16.2785 27.3071 15.3884 27.522C14.7132 27.6756 14.1377 27.6449 13.662 27.43C13.1863 27.2149 12.8103 26.9002 12.5341 26.4856C12.2578 26.071 12.0813 25.6104 12.0047 25.1036C11.9279 24.597 11.9355 24.1286 12.0277 23.6987C12.9178 21.5183 13.9843 19.3993 15.2273 17.3417C16.4704 15.2841 17.9206 13.2112 19.5779 11.1229C19.8541 10.8772 20.2761 10.6699 20.8439 10.501C21.4117 10.3321 21.8952 10.3551 22.2942 10.5701C22.3556 10.6315 22.4015 10.6699 22.4323 10.6853C22.463 10.7006 22.4937 10.739 22.5243 10.8004C22.555 10.7083 22.6011 10.5394 22.6624 10.2937C22.8159 9.92521 23.0308 9.62578 23.307 9.39546C23.5832 9.16513 23.8902 9.09604 24.2278 9.18817C24.7495 9.34172 25.1101 9.57972 25.3097 9.90218C25.5092 10.2246 25.5936 10.6162 25.5628 11.0768C25.1946 12.8273 24.88 14.6162 24.6191 16.4434C24.3582 18.2706 24.151 20.2284 23.9975 22.3167C24.9184 22.1018 25.8698 21.9099 26.8519 21.7409C27.834 21.572 28.8622 21.4108 29.9365 21.2573C30.1206 21.2265 30.3278 21.2265 30.558 21.2573C30.7882 21.288 31.0184 21.334 31.2486 21.3954C31.4788 21.4568 31.6629 21.549 31.8011 21.6718C31.9392 21.7947 32.0082 21.9482 32.0082 22.1325C32.0082 22.5624 31.7627 22.9616 31.2715 23.3302C30.7805 23.6987 30.2434 23.9444 29.6603 24.0672C28.6782 24.2515 27.7113 24.451 26.7599 24.6661C25.8084 24.881 24.8569 25.1113 23.9055 25.357C23.8748 26.524 23.8671 27.7217 23.8825 28.9501C23.8978 30.1785 23.9516 31.4684 24.0436 32.8195C24.0743 33.1881 23.9592 33.4798 23.6983 33.6948ZM17.7636 18.6097C16.5819 20.5906 15.5921 22.6558 14.7941 24.8055C15.7456 24.5291 16.72 24.245 17.7175 23.9533C18.715 23.6616 19.7509 23.3775 20.8251 23.1011C20.9478 19.5387 21.4082 15.9149 22.2063 12.2297C22.1448 12.3525 22.0681 12.4677 21.976 12.5752C21.884 12.6827 21.8072 12.7825 21.7459 12.8747C20.2726 14.7173 18.9451 16.629 17.7636 18.6097Z" fill="#222222"/>
<path fill-rule="evenodd" clip-rule="evenodd" d="M25.2655 38.0518C21.3422 39.3747 16.9738 39.6446 13.1492 37.8422C9.26684 36.0125 6.50665 32.3766 5.13745 28.3706C3.91191 24.782 3.89494 21.2739 4.68644 17.9328L5.22115 17.2322C9.98363 11.0535 15.8023 5.20489 23.8216 4.32076C32.7304 3.33835 40.8915 10.3056 41.1323 19.2924C41.3777 28.4598 33.3611 35.322 25.2655 38.0518ZM29.2387 2.77348C19.6093 0.734401 11.8994 6.7485 6.0612 13.8578C7.98076 9.48753 11.1205 5.50162 14.4764 2.13057C14.9261 1.67912 14.2367 0.847347 13.7327 1.2651C8.79326 5.36183 4.72134 11.1764 3.26676 17.5143C2.4863 18.6058 1.74512 19.696 1.04812 20.7607C0.65589 21.36 1.67582 22.0637 2.09708 21.4725L2.78913 20.5064C2.61079 22.4396 2.68632 24.4032 3.07013 26.3654C4.9103 35.7599 12.9431 42.3115 22.6059 40.6054C31.4774 39.0391 41.1838 32.0918 42.7661 22.7913C44.3221 13.6439 38.3636 4.70618 29.2387 2.77348Z" fill="#FFDD00"/>
</svg>
