<svg width="20" height="20" viewBox="0 0 20 20" fill="none" xmlns="http://www.w3.org/2000/svg">
<g clip-path="url(#clip0_211_471)">
<mask id="mask0_211_471" style="mask-type:alpha" maskUnits="userSpaceOnUse" x="0" y="0" width="20" height="20">
<path d="M20 0H0V20H20V0Z" fill="#D9D9D9"/>
</mask>
<g mask="url(#mask0_211_471)">
<path d="M16.667 10.562V15.229C16.667 15.6457 16.5313 15.9893 16.26 16.26C15.9893 16.5313 15.6457 16.667 15.229 16.667H4.77101C4.35434 16.667 4.01067 16.5313 3.74001 16.26C3.46867 15.9893 3.33301 15.6457 3.33301 15.229V4.77101C3.33301 4.35434 3.46867 4.01067 3.74001 3.74001C4.01067 3.46867 4.35434 3.33301 4.77101 3.33301H9.43801V4.25001H4.77101C4.63167 4.25001 4.51001 4.30201 4.40601 4.40601C4.30201 4.51001 4.25001 4.63167 4.25001 4.77101V15.229C4.25001 15.3683 4.30201 15.49 4.40601 15.594C4.51001 15.698 4.63167 15.75 4.77101 15.75H15.229C15.3683 15.75 15.49 15.698 15.594 15.594C15.698 15.49 15.75 15.3683 15.75 15.229V10.562H16.667ZM8.14601 12.521L7.47901 11.854L15.104 4.25001H11.833V3.33301H16.667V8.16701H15.75V4.89601L8.14601 12.521Z" fill="black"/>
</g>
</g>
<defs>
<clipPath id="clip0_211_471">
<rect width="20" height="20" fill="white"/>
</clipPath>
</defs>
</svg>
