<svg width="14" height="16" viewBox="0 0 14 16" fill="none" xmlns="http://www.w3.org/2000/svg">
<path fill-rule="evenodd" clip-rule="evenodd" d="M13.2622 4.89519L12.8092 4.10905C12.4259 3.44384 11.5765 3.21436 10.9104 3.59604C10.5934 3.78283 10.215 3.83582 9.85873 3.74334C9.50256 3.65085 9.1978 3.42048 9.01164 3.10303C8.89189 2.90125 8.82753 2.67143 8.82509 2.43679C8.8359 2.06063 8.69398 1.69609 8.43167 1.42626C8.16936 1.15642 7.80899 1.00424 7.43267 1.00439H6.51993C6.15124 1.00439 5.79776 1.15131 5.53768 1.41263C5.27761 1.67395 5.13239 2.02814 5.13416 2.39682C5.12324 3.15802 4.50301 3.76935 3.74174 3.76927C3.50711 3.76683 3.27728 3.70248 3.0755 3.58272C2.40938 3.20103 1.56001 3.43051 1.17674 4.09571L0.690382 4.89519C0.307579 5.55957 0.533934 6.40841 1.19672 6.79396C1.62754 7.0427 1.89295 7.50238 1.89295 7.99984C1.89295 8.49731 1.62754 8.95699 1.19672 9.20573C0.534773 9.58867 0.308174 10.4355 0.690382 11.0978L1.15008 11.8906C1.32967 12.2147 1.63097 12.4537 1.98732 12.5551C2.34368 12.6563 2.7257 12.6114 3.04885 12.4303C3.36653 12.2449 3.74509 12.1941 4.1004 12.2893C4.45571 12.3843 4.75832 12.6173 4.94096 12.9366C5.06071 13.1384 5.12507 13.3683 5.1275 13.6029C5.1275 14.3719 5.75091 14.9953 6.51993 14.9953H7.43267C8.19909 14.9953 8.82143 14.3759 8.82509 13.6095C8.82331 13.2397 8.96945 12.8845 9.23096 12.6229C9.49248 12.3614 9.84764 12.2153 10.2175 12.2171C10.4515 12.2234 10.6805 12.2875 10.8838 12.4037C11.5481 12.7864 12.397 12.5601 12.7825 11.8973L13.2622 11.0978C13.4479 10.7791 13.4989 10.3996 13.4038 10.0432C13.3088 9.68679 13.0755 9.38299 12.7558 9.19906C12.4362 9.01513 12.203 8.71134 12.108 8.35495C12.0129 7.99857 12.0639 7.619 12.2496 7.3003C12.3703 7.0895 12.5451 6.91471 12.7558 6.79396C13.4147 6.40862 13.6405 5.56474 13.2622 4.90186V4.89519Z" stroke="#222222" stroke-width="0.99935" stroke-linecap="round" stroke-linejoin="round"/>
<path d="M6.9796 9.91783C8.0393 9.91783 8.89836 9.05877 8.89836 7.99907C8.89836 6.93938 8.0393 6.08032 6.9796 6.08032C5.91991 6.08032 5.06085 6.93938 5.06085 7.99907C5.06085 9.05877 5.91991 9.91783 6.9796 9.91783Z" stroke="#222222" stroke-width="0.99935" stroke-linecap="round" stroke-linejoin="round"/>
</svg>
