<svg width="14" height="16" viewBox="0 0 14 16" fill="none" xmlns="http://www.w3.org/2000/svg">
<path fill-rule="evenodd" clip-rule="evenodd" d="M13.2622 4.89544L12.8092 4.10929C12.4259 3.44408 11.5765 3.2146 10.9104 3.59628C10.5934 3.78307 10.215 3.83607 9.85873 3.74359C9.50256 3.6511 9.1978 3.42073 9.01164 3.10327C8.89189 2.90149 8.82753 2.67167 8.82509 2.43704C8.8359 2.06087 8.69398 1.69634 8.43167 1.4265C8.16936 1.15666 7.80899 1.00448 7.43267 1.00464H6.51993C6.15124 1.00463 5.79776 1.15155 5.53768 1.41287C5.27761 1.67419 5.13239 2.02838 5.13416 2.39706C5.12324 3.15827 4.50301 3.76959 3.74174 3.76951C3.50711 3.76707 3.27728 3.70272 3.0755 3.58296C2.40938 3.20127 1.56001 3.43075 1.17674 4.09596L0.690382 4.89544C0.307579 5.55982 0.533934 6.40865 1.19672 6.7942C1.62754 7.04294 1.89295 7.50262 1.89295 8.00009C1.89295 8.49756 1.62754 8.95724 1.19672 9.20597C0.534773 9.58892 0.308174 10.4357 0.690382 11.0981L1.15008 11.8909C1.32967 12.2149 1.63097 12.454 1.98732 12.5553C2.34368 12.6566 2.7257 12.6117 3.04885 12.4305C3.36653 12.2451 3.74509 12.1944 4.1004 12.2895C4.45571 12.3845 4.75832 12.6176 4.94096 12.9369C5.06071 13.1386 5.12507 13.3685 5.1275 13.6031C5.1275 14.3721 5.75091 14.9955 6.51993 14.9955H7.43267C8.19909 14.9955 8.82143 14.3761 8.82509 13.6097C8.82331 13.24 8.96945 12.8847 9.23096 12.6232C9.49248 12.3617 9.84764 12.2155 10.2175 12.2173C10.4515 12.2236 10.6805 12.2877 10.8838 12.4039C11.5481 12.7867 12.397 12.5603 12.7825 11.8976L13.2622 11.0981C13.4479 10.7794 13.4989 10.3998 13.4038 10.0435C13.3088 9.68703 13.0755 9.38324 12.7558 9.19931C12.4362 9.01538 12.203 8.71159 12.108 8.3552C12.0129 7.99881 12.0639 7.61925 12.2496 7.30054C12.3703 7.08974 12.5451 6.91495 12.7558 6.7942C13.4147 6.40886 13.6405 5.56498 13.2622 4.9021V4.89544ZM6.97957 9.91794C8.03927 9.91794 8.89832 9.05889 8.89832 7.99919C8.89832 6.93949 8.03927 6.08044 6.97957 6.08044C5.91987 6.08044 5.06082 6.93949 5.06082 7.99919C5.06082 9.05889 5.91987 9.91794 6.97957 9.91794Z" fill="#FFDD00" stroke="#222222" stroke-width="0.99935" stroke-linecap="round" stroke-linejoin="round"/>
</svg>
